<svg width="529" height="179" viewBox="0 0 529 179" fill="currentColor" xmlns="http://www.w3.org/2000/svg">
<path d="M214.495 52V132H207.542V52H214.495ZM218.671 132V72H225.664V132H218.671ZM222.226 61.6875C220.794 61.6875 219.57 61.2057 218.554 60.2422C217.539 59.2526 217.031 58.0677 217.031 56.6875C217.031 55.3073 217.539 54.1354 218.554 53.1719C219.57 52.1823 220.794 51.6875 222.226 51.6875C223.658 51.6875 224.882 52.1823 225.898 53.1719C226.914 54.1354 227.421 55.3073 227.421 56.6875C227.421 58.0677 226.914 59.2526 225.898 60.2422C224.882 61.2057 223.658 61.6875 222.226 61.6875ZM270.065 85.1641L263.698 86.9609C263.073 85.1641 262.187 83.5365 261.041 82.0781C259.896 80.6198 258.398 79.4609 256.549 78.6016C254.726 77.7422 252.461 77.3125 249.752 77.3125C245.69 77.3125 242.357 78.276 239.752 80.2031C237.148 82.1302 235.846 84.6172 235.846 87.6641C235.846 90.2422 236.732 92.3385 238.502 93.9531C240.299 95.5417 243.06 96.8047 246.784 97.7422L255.846 99.9687C260.872 101.193 264.635 103.133 267.135 105.789C269.661 108.445 270.924 111.779 270.924 115.789C270.924 119.174 269.987 122.182 268.112 124.812C266.237 127.443 263.62 129.513 260.26 131.023C256.927 132.508 253.06 133.25 248.659 133.25C242.799 133.25 237.968 131.935 234.166 129.305C230.364 126.648 227.929 122.82 226.862 117.82L233.541 116.18C234.401 119.747 236.08 122.443 238.58 124.266C241.107 126.089 244.427 127 248.541 127C253.151 127 256.836 125.971 259.596 123.914C262.357 121.831 263.737 119.227 263.737 116.102C263.737 113.68 262.929 111.648 261.315 110.008C259.7 108.341 257.252 107.117 253.971 106.336L244.166 103.992C238.958 102.742 235.104 100.763 232.604 98.0547C230.104 95.3464 228.854 91.987 228.854 87.9766C228.854 84.6693 229.752 81.7656 231.549 79.2656C233.346 76.7396 235.82 74.7604 238.971 73.3281C242.122 71.8958 245.716 71.1797 249.752 71.1797C255.247 71.1797 259.635 72.4297 262.916 74.9297C266.224 77.4036 268.607 80.8151 270.065 85.1641ZM295.482 72V78.0547H266.849V72H295.482ZM275.794 57.625H282.786V116.336C282.786 118.836 283.216 120.802 284.075 122.234C284.935 123.641 286.055 124.643 287.435 125.242C288.815 125.815 290.286 126.102 291.849 126.102C292.76 126.102 293.542 126.049 294.193 125.945C294.844 125.815 295.417 125.685 295.911 125.555L297.396 131.844C296.719 132.104 295.885 132.339 294.896 132.547C293.906 132.781 292.682 132.898 291.224 132.898C288.672 132.898 286.211 132.339 283.841 131.219C281.497 130.099 279.57 128.432 278.06 126.219C276.549 124.005 275.794 121.258 275.794 117.977V57.625ZM320.586 133.25C314.987 133.25 310.143 131.948 306.055 129.344C301.966 126.714 298.802 123.081 296.563 118.445C294.349 113.784 293.242 108.419 293.242 102.352C293.242 96.3099 294.349 90.9453 296.563 86.2578C298.802 81.5443 301.888 77.8594 305.82 75.2031C309.779 72.5208 314.349 71.1797 319.531 71.1797C322.786 71.1797 325.924 71.7786 328.945 72.9766C331.966 74.1484 334.674 75.9583 337.07 78.4062C339.492 80.8281 341.406 83.888 342.813 87.5859C344.219 91.2578 344.922 95.6068 344.922 100.633V104.07H298.047V97.9375H337.813C337.813 94.0833 337.031 90.6198 335.469 87.5469C333.932 84.4479 331.784 82 329.023 80.2031C326.289 78.4062 323.125 77.5078 319.531 77.5078C315.729 77.5078 312.383 78.5234 309.492 80.5547C306.602 82.5859 304.336 85.2682 302.695 88.6016C301.081 91.9349 300.26 95.5807 300.234 99.5391V103.211C300.234 107.977 301.055 112.143 302.695 115.711C304.362 119.253 306.719 122 309.766 123.953C312.813 125.906 316.419 126.883 320.586 126.883C323.424 126.883 325.911 126.44 328.047 125.555C330.208 124.669 332.018 123.484 333.477 122C334.961 120.49 336.081 118.836 336.836 117.039L343.438 119.187C342.526 121.714 341.029 124.044 338.945 126.18C336.888 128.315 334.31 130.034 331.211 131.336C328.138 132.612 324.596 133.25 320.586 133.25ZM352.897 94.5V132H345.944V72H352.702V81.4141H353.327C354.733 78.3411 356.921 75.8802 359.889 74.0313C362.884 72.1563 366.582 71.2188 370.983 71.2188C375.02 71.2188 378.561 72.0651 381.608 73.7578C384.681 75.4245 387.064 77.8854 388.757 81.1406C390.475 84.3958 391.335 88.3932 391.335 93.1328V132H384.382V93.5625C384.382 88.6406 383.001 84.7474 380.241 81.8828C377.507 79.0182 373.835 77.5859 369.225 77.5859C366.074 77.5859 363.275 78.263 360.827 79.6172C358.379 80.9714 356.439 82.9245 355.007 85.4766C353.6 88.0026 352.897 91.0104 352.897 94.5ZM395.423 132V72H402.416V132H395.423ZM398.978 61.6875C397.546 61.6875 396.322 61.2057 395.306 60.2422C394.291 59.2526 393.783 58.0677 393.783 56.6875C393.783 55.3073 394.291 54.1354 395.306 53.1719C396.322 52.1823 397.546 51.6875 398.978 51.6875C400.41 51.6875 401.634 52.1823 402.65 53.1719C403.666 54.1354 404.173 55.3073 404.173 56.6875C404.173 58.0677 403.666 59.2526 402.65 60.2422C401.634 61.2057 400.41 61.6875 398.978 61.6875ZM431.192 72V78.0547H401.7V72H431.192ZM410.918 132V63.2109C410.918 59.9818 411.661 57.2604 413.145 55.0469C414.655 52.8333 416.621 51.1536 419.043 50.0078C421.465 48.862 424.03 48.2891 426.739 48.2891C428.562 48.2891 430.072 48.4453 431.27 48.7578C432.494 49.0443 433.457 49.3307 434.161 49.6172L432.129 55.7109C431.608 55.5547 430.97 55.3724 430.215 55.1641C429.46 54.9557 428.509 54.8516 427.364 54.8516C424.343 54.8516 422.012 55.6979 420.371 57.3906C418.731 59.0833 417.911 61.5052 417.911 64.6562L417.871 132H410.918ZM435.613 154.5C434.232 154.5 432.943 154.37 431.745 154.109C430.547 153.849 429.597 153.563 428.894 153.25L430.769 147.117C433.139 147.846 435.248 148.107 437.097 147.898C438.946 147.716 440.586 146.883 442.019 145.398C443.451 143.94 444.727 141.701 445.847 138.68L448.034 132.586L425.964 72H433.503L451.316 122.82H451.863L469.675 72H477.214L451.823 141.492C450.756 144.383 449.441 146.792 447.878 148.719C446.316 150.672 444.506 152.117 442.448 153.055C440.417 154.018 438.139 154.5 435.613 154.5Z" fill="currentColor"/>
<path d="M113.5 100.749C114.535 100.749 115.376 101.589 115.376 102.625V136.375C115.376 137.41 114.535 138.25 113.5 138.25C112.465 138.25 111.624 137.41 111.624 136.375V102.625C111.624 101.589 112.465 100.749 113.5 100.749Z" fill="currentColor"/>
<path d="M104.999 114.126C104.999 113.09 104.161 112.25 103.126 112.25C102.09 112.25 101.25 113.09 101.25 114.126V132.874C101.25 133.91 102.09 134.75 103.126 134.75C104.161 134.75 104.999 133.91 104.999 132.874V114.126Z" fill="currentColor"/>
<path d="M93.625 115.751C94.6603 115.751 95.5006 116.589 95.5006 117.625V121.376C95.5006 122.411 94.6603 123.25 93.625 123.25C92.5896 123.25 91.7494 122.411 91.7494 121.376V117.625C91.7494 116.589 92.5896 115.751 93.625 115.751Z" fill="currentColor"/>
<path d="M133.375 115.751C134.41 115.751 135.251 116.589 135.251 117.625V121.376C135.251 122.411 134.41 123.25 133.375 123.25C132.34 123.25 131.499 122.411 131.499 121.376V117.625C131.499 116.589 132.34 115.751 133.375 115.751Z" fill="currentColor"/>
<path d="M125.75 107.126C125.75 106.09 124.91 105.25 123.874 105.25C122.839 105.25 122.001 106.09 122.001 107.126V125.874C122.001 126.91 122.839 127.75 123.874 127.75C124.91 127.75 125.75 126.91 125.75 125.874V107.126Z" fill="currentColor"/>
<path d="M113.5 47.3906H113.494C104.075 47.3906 95.3911 50.4726 88.4281 55.6581H88.4221C87.6989 56.1855 87.2328 57.041 87.2328 57.996C87.2328 59.6073 88.5655 60.914 90.2031 60.914C90.9203 60.914 91.5717 60.6737 92.0858 60.2636C98.0384 55.8457 105.455 53.2265 113.5 53.2265C121.586 53.2265 129.051 55.8749 135.021 60.3398V60.3457C135.517 60.7031 136.126 60.914 136.79 60.914C138.433 60.914 139.766 59.6074 139.766 57.9961C139.766 57.041 139.282 56.1914 138.559 55.6582C131.596 50.4668 122.913 47.3906 113.5 47.3906ZM157.948 105.633C163.524 105.691 168.019 110.138 168.019 115.617V126.539C167.893 131.912 163.446 136.236 157.948 136.295H153.872C152.647 136.254 151.661 135.269 151.661 134.056V107.871C151.661 106.658 152.647 105.674 153.872 105.632L157.948 105.633ZM73.1233 105.633C74.3545 105.674 75.3346 106.658 75.3346 107.871V134.056C75.3346 135.269 74.3545 136.254 73.1233 136.295H69.0473C63.5549 136.236 59.1023 131.912 58.9768 126.539V115.617C58.9768 110.139 63.4712 105.691 69.0473 105.633L73.1233 105.633ZM113.502 37.8506H113.496C85.2151 37.8506 62.288 60.3326 62.288 88.0601L62.2761 101.308C57.0465 103.728 53.3531 108.826 53.0483 114.808L53.0244 126.269V126.31C53.0244 135.046 60.2501 142.131 69.1613 142.131L73.1537 142.125C77.6421 142.072 81.258 138.509 81.2818 134.109V107.818C81.2579 103.418 77.6421 99.8555 73.1537 99.8027C72.9983 99.7969 69.0957 99.8027 69.0657 99.8027C68.7848 99.8027 68.5099 99.8086 68.229 99.8262L68.223 88.0605C68.223 63.5445 88.4955 43.6755 113.502 43.6755C138.502 43.6755 158.775 63.5445 158.775 88.0605V99.8262C158.464 99.8086 158.153 99.7969 157.836 99.7969L153.844 99.8027C149.361 99.8555 145.74 103.418 145.716 107.818V134.109C145.74 138.509 149.361 142.072 153.844 142.125L157.836 142.131C166.747 142.131 173.973 135.046 173.973 126.31V126.269L173.949 114.802C173.644 108.826 169.957 103.728 164.721 101.302L164.715 88.0601C164.715 60.3341 141.784 37.8506 113.502 37.8506Z" fill="currentColor"/>
</svg>
